<svg width="64" height="64" viewBox="0 0 64 64" fill="none" xmlns="http://www.w3.org/2000/svg">
  <rect width="64" height="64" rx="12" fill="#3B82F6"/>
  <path d="M32 16C25.373 16 20 21.373 20 28C20 31.197 21.125 34.115 23 36.34V44L28.223 41.379C29.428 41.78 30.686 42 32 42C38.627 42 44 36.627 44 30C44 23.373 38.627 18 32 18V16Z" fill="white"/>
  <path d="M32 48C41.941 48 50 39.941 50 30C50 20.059 41.941 12 32 12C22.059 12 14 20.059 14 30C14 34.764 15.805 39.122 18.837 42.362L16 52L25.638 49.163C27.661 49.708 29.795 50 32 50V48Z" stroke="white" stroke-width="2.5" stroke-linecap="round" stroke-linejoin="round"/>
  <path d="M26 28H38" stroke="#3B82F6" stroke-width="2.5" stroke-linecap="round"/>
  <path d="M26 34H34" stroke="#3B82F6" stroke-width="2.5" stroke-linecap="round"/>
</svg> 